<svg width="368" height="359" viewBox="0 0 368 359" fill="none" xmlns="http://www.w3.org/2000/svg">
<path fill-rule="evenodd" clip-rule="evenodd" d="M184.002 0C82.3936 0 0 82.3976 0 184.044C0 265.36 52.722 334.348 125.831 358.684C135.027 360.387 138.403 354.691 138.403 349.83C138.403 345.441 138.233 330.944 138.153 315.565C86.9641 326.698 76.1625 293.85 76.1625 293.85C67.7924 272.577 55.7325 266.921 55.7325 266.921C39.038 255.498 56.9909 255.732 56.9909 255.732C75.4678 257.031 85.1968 274.698 85.1968 274.698C101.608 302.835 128.242 294.7 138.742 289.998C140.393 278.103 145.162 269.983 150.424 265.388C109.554 260.734 66.5919 244.953 66.5919 174.432C66.5919 154.339 73.7798 137.921 85.5503 125.032C83.6398 120.396 77.3417 101.677 87.3328 76.3266C87.3328 76.3266 102.784 71.3802 137.946 95.1918C152.624 91.114 168.364 89.069 184.002 88.9989C199.639 89.069 215.392 91.114 230.096 95.1918C265.216 71.3802 280.646 76.3266 280.646 76.3266C290.661 101.677 284.36 120.396 282.45 125.032C294.248 137.921 301.387 154.339 301.387 174.432C301.387 245.12 258.342 260.685 217.369 265.241C223.969 270.953 229.85 282.153 229.85 299.324C229.85 323.949 229.636 343.768 229.636 349.83C229.636 354.728 232.948 360.467 242.275 358.659C315.345 334.296 368 265.333 368 184.044C368 82.3976 285.619 0 184.002 0Z" fill="#161514"/>
<g clip-path="url(#clip0)">
<path d="M184 359L368 359L368 180H184V359Z" fill="#EA7819"/>
<path d="M213.13 273.363C228.836 273.363 243.601 279.332 254.696 290.188C265.813 301.044 271.933 315.503 271.933 330.896H296.136C296.136 286.186 258.898 249.815 213.13 249.815V273.363ZM213.168 231.62C269.144 231.62 314.687 276.167 314.687 330.926H338.891C338.891 263.181 282.488 208.074 213.168 208.074V231.62ZM246.638 314.477C246.638 323.481 239.13 330.785 229.874 330.785C220.617 330.785 213.109 323.484 213.109 314.477C213.109 305.467 220.615 298.168 229.871 298.168C239.127 298.168 246.638 305.467 246.638 314.477Z" fill="white"/>
</g>
<defs>
<clipPath id="clip0">
<rect width="184" height="179" fill="white" transform="translate(184 180)"/>
</clipPath>
</defs>
</svg>
